<?xml version="1.0" encoding="utf-8"?>
<!-- Generator: Adobe Illustrator 24.0.2, SVG Export Plug-In . SVG Version: 6.00 Build 0)  -->
<svg version="1.1" id="Capa_1" xmlns="http://www.w3.org/2000/svg" xmlns:xlink="http://www.w3.org/1999/xlink" x="0px" y="0px"
	 viewBox="0 0 283.46 283.46" style="enable-background:new 0 0 283.46 283.46;" xml:space="preserve">
<style type="text/css">
	.st0{fill:#2A273F;}
	.st1{fill:#D8DAE1;}
</style>
<path class="st0" d="M23.23,112.87c0-16.4,2.99-31.08,8.97-44.05c5.96-12.95,14.02-23.95,24.14-32.96
	c10.13-9.01,22.03-15.9,35.7-20.66c13.67-4.75,28.21-7.13,43.6-7.13c15.38,0,29.91,2.38,43.59,7.13
	c13.67,4.76,25.56,11.65,35.7,20.66c10.12,9.01,18.17,20.01,24.14,32.96c5.97,12.97,8.97,27.65,8.97,44.05
	c0,16.4-2.99,31.1-8.97,44.05c-5.97,12.97-14.03,23.95-24.14,32.96c-10.14,9.01-22.03,15.9-35.7,20.65
	c-13.68,4.76-28.21,7.14-43.59,7.14c-15.39,0-29.92-2.38-43.6-7.14c-13.67-4.75-25.57-11.64-35.7-20.65
	c-10.12-9.01-18.17-20-24.14-32.96C26.22,143.96,23.23,129.27,23.23,112.87z M55.43,112.87c0,12.35,1.82,24.21,5.47,35.54
	c3.65,11.35,8.92,21.32,15.8,29.92c6.88,8.61,15.28,15.5,25.21,20.66c9.92,5.17,21.16,7.75,33.73,7.75
	c12.55,0,23.79-2.58,33.72-7.75c9.92-5.16,18.33-12.05,25.21-20.66c6.88-8.6,12.15-18.57,15.8-29.92
	c3.65-11.34,5.47-23.19,5.47-35.54c0-12.35-1.82-24.2-5.47-35.55c-3.65-11.33-8.92-21.31-15.8-29.92
	c-6.88-8.61-15.3-15.49-25.21-20.66c-9.92-5.16-21.17-7.75-33.72-7.75c-12.57,0-23.8,2.58-33.73,7.75
	C91.98,31.91,83.58,38.79,76.7,47.4c-6.88,8.61-12.15,18.59-15.8,29.92C57.26,88.67,55.43,100.51,55.43,112.87z"/>
<path class="st0" d="M261.78,228.61c-5.68,7.29-10.89,13.87-15.65,19.74c-4.76,5.87-9.87,10.79-15.34,14.74
	c-5.47,3.95-11.7,6.98-18.68,9.11c-6.99,2.12-15.45,3.19-25.37,3.19c-7.49,0-14.63-1.07-21.42-3.19c-6.78-2.14-13.42-4.82-19.9-8.06
	c-6.49-3.24-12.91-6.78-19.3-10.63c-6.38-3.85-12.81-7.39-19.29-10.63c-6.48-3.25-13.21-5.93-20.2-8.05
	c-6.99-2.13-14.23-3.19-21.72-3.19c-4.86,0-9.62,0.8-14.27,2.43c-4.66,1.62-9.11,3.55-13.37,5.77l-4.25-4.86
	c7.08-4.46,13.92-7.64,20.5-9.57c6.57-1.93,14.13-2.88,22.63-2.88c11.13,0,22.33,1.66,33.56,5.01c11.24,3.34,22.23,6.99,32.97,10.94
	c10.72,3.95,21.1,7.54,31.13,10.79c10.02,3.23,19.39,4.86,28.1,4.86c6.48,0,12.25-0.66,17.32-1.98c5.05-1.32,9.72-3.29,13.97-5.92
	c4.25-2.64,8.25-5.82,11.99-9.57c3.75-3.74,7.55-8.05,11.4-12.9L261.78,228.61z"/>
<path class="st1" d="M49.88,221.44c4.65-1.62,9.41-2.42,14.27-2.42c7.49,0,14.74,1.06,21.72,3.19c1.31,0.4,2.61,0.82,3.9,1.26
	c6.38,0.82,12.77,2.18,19.18,4.08c11.24,3.34,22.23,6.99,32.97,10.94c10.72,3.95,21.1,7.54,31.13,10.79
	c10.02,3.23,19.39,4.86,28.1,4.86c6.48,0,12.25-0.66,17.32-1.98c5.05-1.32,9.72-3.29,13.97-5.92c4.25-2.64,8.25-5.82,11.99-9.57
	c0.3-0.3,0.59-0.6,0.89-0.9c0.01-0.01,0.02-0.02,0.03-0.04c4.76-5.87,9.96-12.45,15.65-19.74l-5.17-4.86
	c-3.85,4.86-7.65,9.16-11.4,12.9c-3.74,3.75-7.74,6.93-11.99,9.57c-4.26,2.63-8.92,4.6-13.97,5.92c-5.08,1.31-10.84,1.98-17.32,1.98
	c-8.71,0-18.08-1.63-28.1-4.86c-10.03-3.25-20.41-6.84-31.13-10.79c-10.74-3.95-21.73-7.6-32.97-10.94
	c-9.81-2.92-19.59-4.56-29.32-4.92l107.61-101.24c3.59-3.35,5.91-5.47,6.99-6.37c4.91-4.18,7.36-7.25,7.36-9.2
	c0-1.53-1.12-3-3.35-4.39c-5.27,4.32-13.94,6.48-26.01,6.48c-6.35,0-13.32-0.8-20.92-2.4l-5.64-1.25
	c-8.84-1.88-16.18-2.82-21.99-2.82c-16.36,0-30.49,4.87-42.38,14.63c-11.89,9.75-17.83,21.31-17.83,34.69
	c0,0.77,0.04,2.05,0.14,3.87l21.32-10.45C84.31,128.66,84,126.16,84,124c0-15.82,6.56-23.72,19.68-23.72
	c5.09,0,9.82,0.63,14.19,1.88l5.48,1.57l6.17,1.77c12.85,3.7,23.64,5.54,32.4,5.54c2.67,0,5.97-0.28,9.89-0.84L64.13,210.53
	c-4.06,0.48-7.86,1.23-11.37,2.25c-6.58,1.93-13.43,5.11-20.5,9.57l4.25,4.86C40.76,224.99,45.22,223.06,49.88,221.44z"/>
</svg>
